<svg id="visual" viewBox="0 0 900 600" width="900" height="600" xmlns="http://www.w3.org/2000/svg" xmlns:xlink="http://www.w3.org/1999/xlink" version="1.1"><g transform="translate(444.9523568317262 304.16640917370785)"><path d="M107.1 -123.8C142.2 -98.2 176.5 -67.7 185.1 -30.9C193.6 5.9 176.5 48.9 150.4 80C124.4 111.1 89.4 130.3 52.6 143.1C15.7 156 -22.9 162.6 -64.5 156.4C-106 150.3 -150.4 131.4 -167.9 98.3C-185.4 65.2 -175.9 17.9 -158.5 -18.8C-141.1 -55.5 -115.7 -81.6 -88 -108.5C-60.3 -135.5 -30.1 -163.2 2.9 -166.7C36 -170.2 72 -149.5 107.1 -123.8" fill="#FFAF75"></path></g></svg>