<svg id="visual" viewBox="0 0 900 600" width="900" height="600" xmlns="http://www.w3.org/2000/svg" xmlns:xlink="http://www.w3.org/1999/xlink" version="1.1"><g transform="translate(441.0041294409059 307.44085757785206)"><path d="M111.1 -127.4C148 -101.4 184.8 -70.2 195.8 -31.1C206.9 8.1 192.2 55.3 165.9 91.1C139.7 126.9 101.8 151.3 64.2 156.3C26.6 161.2 -10.7 146.7 -51.6 134.8C-92.4 122.9 -136.7 113.7 -160.4 86.1C-184 58.5 -187 12.5 -173.6 -24.8C-160.1 -62.2 -130.2 -90.8 -98.5 -117.8C-66.8 -144.7 -33.4 -169.8 1.8 -172C37.1 -174.2 74.1 -153.4 111.1 -127.4" fill="#FFAF75"></path></g></svg>